<svg xmlns="http://www.w3.org/2000/svg" width="980" height="980" fill="none"><path fill="#F40407" d="M601.392 21.603c92.436-48.172 206.883-13.08 255.533 78.398 48.65 91.479 13.16 204.65-79.276 252.822l-76.006 39.957c65.479 2.392 127.926 38.361 160.626 99.852 48.65 91.478 13.239 204.649-79.276 252.821L377.681 958.397c-92.435 48.173-206.882 13.08-255.532-78.398-48.65-91.479-13.16-204.65 79.275-252.822l76.006-39.957c-65.478-2.392-127.926-38.361-160.625-99.852-48.65-91.478-13.159-204.649 79.276-252.821L601.392 21.603Z"/><g clip-path="url(#a)"><path fill="#fff" d="M582.446 351.8s4.115 58.329 11.482 85.211c9.638 35.165 31.619 53.454 37.228 89.663.338 45.981 2.223 52.39-68.674 92.263-25.98 14.614-111.498 36.744-111.498 36.744-11.735 3.149-29.714 15.333-36.176 3.873-6.461-11.459 2.239-27.373 14.145-34.132l49.259-22.338c11.004-7.148 19.177-20.547 11.127-35.672-12.635-21.966-24.374-37.682-45.685-49.298l-81.785-43.354c-5.643-3.937-11.46-12.803-6.257-21.161 5.204-8.359 17.197-7.058 23.115-3.378l85.86 38.701c7.914 1.895 17.664-2.374 11.084-12.209l-76.931-86.28c-5.279-6.235-6.505-16.7 1.589-21.264 10.622-5.989 19.433-5.612 22.841.917l78.323 83.766c4.508 3.679 10.699-.63 9.997-5.989l-46.501-98.184c-1.353-3.206-.385-10.666 7.77-13.832 8.155-3.165 17.054 2.473 18.017 6.036l50.407 94.503c6.189 7.405 13.368 4.95 15.83-2.523l-.271-77.669c-.791-6.082 6.491-11.541 12.143-12.146 5.794.372 10.629 2.513 13.563 7.717l-.002.035Z"/></g><defs><clipPath id="a"><path fill="#fff" d="m273.587 429.282 276.131-155.694 155.694 276.131-276.13 155.694z"/></clipPath></defs></svg>